<svg width="154" height="205" viewBox="0 0 154 205" fill="none" xmlns="http://www.w3.org/2000/svg">
<rect y="51" width="154" height="154" rx="8" fill="#E4DADA"/>
<path d="M0 59C0 54.5817 3.58172 51 8 51H146C150.418 51 154 54.5817 154 59V92H0V59Z" fill="#5BB790"/>
<path d="M62.1818 108.455V155H56.5455V114.364H56.2727L44.9091 121.909V116.182L56.5455 108.455H62.1818ZM91.2955 155.636C88.2955 155.636 85.6212 155.121 83.2727 154.091C80.9394 153.061 79.0833 151.629 77.7045 149.795C76.3409 147.947 75.5985 145.803 75.4773 143.364H81.2045C81.3258 144.864 81.8409 146.159 82.75 147.25C83.6591 148.326 84.8485 149.159 86.3182 149.75C87.7879 150.341 89.4167 150.636 91.2045 150.636C93.2045 150.636 94.9773 150.288 96.5227 149.591C98.0682 148.894 99.2803 147.924 100.159 146.682C101.038 145.439 101.477 144 101.477 142.364C101.477 140.652 101.053 139.144 100.205 137.841C99.3561 136.523 98.1136 135.492 96.4773 134.75C94.8409 134.008 92.8409 133.636 90.4773 133.636H86.75V128.636H90.4773C92.3258 128.636 93.947 128.303 95.3409 127.636C96.75 126.97 97.8485 126.03 98.6364 124.818C99.4394 123.606 99.8409 122.182 99.8409 120.545C99.8409 118.97 99.4924 117.598 98.7955 116.432C98.0985 115.265 97.1136 114.356 95.8409 113.705C94.5833 113.053 93.0985 112.727 91.3864 112.727C89.7803 112.727 88.2652 113.023 86.8409 113.614C85.4318 114.189 84.2803 115.03 83.3864 116.136C82.4924 117.227 82.0076 118.545 81.9318 120.091H76.4773C76.5682 117.652 77.303 115.515 78.6818 113.682C80.0606 111.833 81.8636 110.394 84.0909 109.364C86.3333 108.333 88.7955 107.818 91.4773 107.818C94.3561 107.818 96.8258 108.402 98.8864 109.568C100.947 110.72 102.53 112.242 103.636 114.136C104.742 116.03 105.295 118.076 105.295 120.273C105.295 122.894 104.606 125.129 103.227 126.977C101.864 128.826 100.008 130.106 97.6591 130.818V131.182C100.598 131.667 102.894 132.917 104.545 134.932C106.197 136.932 107.023 139.409 107.023 142.364C107.023 144.894 106.333 147.167 104.955 149.182C103.591 151.182 101.727 152.758 99.3636 153.909C97 155.061 94.3106 155.636 91.2955 155.636Z" fill="#393E46"/>
<path d="M34.2955 172.455V187H32.5909L24.6648 175.58H24.5227V187H22.7614V172.455H24.4659L32.4205 183.903H32.5625V172.455H34.2955ZM50.0927 179.727C50.0927 181.261 49.8157 182.587 49.2617 183.705C48.7077 184.822 47.9478 185.684 46.9819 186.29C46.016 186.896 44.9128 187.199 43.6722 187.199C42.4317 187.199 41.3285 186.896 40.3626 186.29C39.3967 185.684 38.6367 184.822 38.0827 183.705C37.5288 182.587 37.2518 181.261 37.2518 179.727C37.2518 178.193 37.5288 176.867 38.0827 175.75C38.6367 174.633 39.3967 173.771 40.3626 173.165C41.3285 172.559 42.4317 172.256 43.6722 172.256C44.9128 172.256 46.016 172.559 46.9819 173.165C47.9478 173.771 48.7077 174.633 49.2617 175.75C49.8157 176.867 50.0927 178.193 50.0927 179.727ZM48.3881 179.727C48.3881 178.468 48.1774 177.405 47.756 176.538C47.3394 175.672 46.7736 175.016 46.0586 174.571C45.3484 174.126 44.5529 173.903 43.6722 173.903C42.7915 173.903 41.9937 174.126 41.2788 174.571C40.5685 175.016 40.0027 175.672 39.5813 176.538C39.1647 177.405 38.9563 178.468 38.9563 179.727C38.9563 180.987 39.1647 182.05 39.5813 182.916C40.0027 183.783 40.5685 184.438 41.2788 184.884C41.9937 185.329 42.7915 185.551 43.6722 185.551C44.5529 185.551 45.3484 185.329 46.0586 184.884C46.7736 184.438 47.3394 183.783 47.756 182.916C48.1774 182.05 48.3881 180.987 48.3881 179.727ZM52.9673 172.455L57.2855 184.699H57.456L61.7741 172.455H63.6207L58.2798 187H56.4616L51.1207 172.455H52.9673ZM65.8864 187V172.455H74.6648V174.017H67.6477V178.932H74.2102V180.494H67.6477V185.438H74.7784V187H65.8864ZM77.8395 172.455H79.9418L84.8849 184.528H85.0554L89.9986 172.455H92.1009V187H90.4531V175.949H90.3111L85.7656 187H84.1747L79.6293 175.949H79.4872V187H77.8395V172.455ZM95.6325 187V172.455H100.718C101.731 172.455 102.567 172.63 103.225 172.98C103.883 173.326 104.373 173.792 104.695 174.379C105.017 174.962 105.178 175.608 105.178 176.318C105.178 176.943 105.067 177.459 104.844 177.866C104.626 178.274 104.337 178.596 103.978 178.832C103.623 179.069 103.237 179.244 102.82 179.358V179.5C103.265 179.528 103.712 179.685 104.162 179.969C104.612 180.253 104.989 180.66 105.292 181.19C105.595 181.721 105.746 182.369 105.746 183.136C105.746 183.866 105.58 184.521 105.249 185.104C104.917 185.686 104.394 186.148 103.679 186.489C102.964 186.83 102.034 187 100.888 187H95.6325ZM97.3938 185.438H100.888C102.039 185.438 102.855 185.215 103.338 184.77C103.826 184.32 104.07 183.776 104.07 183.136C104.07 182.644 103.944 182.189 103.694 181.773C103.443 181.351 103.085 181.015 102.621 180.764C102.157 180.509 101.608 180.381 100.973 180.381H97.3938V185.438ZM97.3938 178.847H100.661C101.191 178.847 101.669 178.742 102.096 178.534C102.526 178.326 102.867 178.032 103.118 177.653C103.374 177.275 103.502 176.83 103.502 176.318C103.502 175.679 103.279 175.137 102.834 174.692C102.389 174.242 101.684 174.017 100.718 174.017H97.3938V178.847ZM108.64 187V172.455H113.555C114.691 172.455 115.624 172.649 116.353 173.037C117.083 173.42 117.622 173.948 117.973 174.621C118.323 175.293 118.498 176.058 118.498 176.915C118.498 177.772 118.323 178.532 117.973 179.195C117.622 179.857 117.085 180.378 116.36 180.757C115.636 181.131 114.71 181.318 113.583 181.318H109.606V179.727H113.527C114.303 179.727 114.928 179.614 115.402 179.386C115.88 179.159 116.225 178.837 116.439 178.42C116.656 177.999 116.765 177.497 116.765 176.915C116.765 176.332 116.656 175.823 116.439 175.388C116.221 174.952 115.873 174.616 115.395 174.379C114.916 174.138 114.284 174.017 113.498 174.017H110.402V187H108.64ZM115.487 180.466L119.066 187H117.021L113.498 180.466H115.487ZM133.706 179.727C133.706 181.261 133.429 182.587 132.875 183.705C132.321 184.822 131.561 185.684 130.595 186.29C129.629 186.896 128.526 187.199 127.286 187.199C126.045 187.199 124.942 186.896 123.976 186.29C123.01 185.684 122.25 184.822 121.696 183.705C121.142 182.587 120.865 181.261 120.865 179.727C120.865 178.193 121.142 176.867 121.696 175.75C122.25 174.633 123.01 173.771 123.976 173.165C124.942 172.559 126.045 172.256 127.286 172.256C128.526 172.256 129.629 172.559 130.595 173.165C131.561 173.771 132.321 174.633 132.875 175.75C133.429 176.867 133.706 178.193 133.706 179.727ZM132.001 179.727C132.001 178.468 131.791 177.405 131.369 176.538C130.953 175.672 130.387 175.016 129.672 174.571C128.962 174.126 128.166 173.903 127.286 173.903C126.405 173.903 125.607 174.126 124.892 174.571C124.182 175.016 123.616 175.672 123.195 176.538C122.778 177.405 122.57 178.468 122.57 179.727C122.57 180.987 122.778 182.05 123.195 182.916C123.616 183.783 124.182 184.438 124.892 184.884C125.607 185.329 126.405 185.551 127.286 185.551C128.166 185.551 128.962 185.329 129.672 184.884C130.387 184.438 130.953 183.783 131.369 182.916C131.791 182.05 132.001 180.987 132.001 179.727Z" fill="#393E46"/>
<rect x="41" width="10" height="71" rx="5" fill="#EEEEEE"/>
<rect x="104" width="10" height="71" rx="5" fill="#EEEEEE"/>
</svg>
